<svg width="22" height="18" viewBox="0 0 22 18" fill="none" xmlns="http://www.w3.org/2000/svg">
<path d="M10.3076 2.53109L11 3.19555L11.6924 2.53109C12.6816 1.58184 14.0218 1 15.5 1C18.5376 1 21 3.46243 21 6.5C21 9.28337 19.4838 11.5027 17.5038 13.2217C15.523 14.9413 13.1823 16.0636 11.8058 16.6299C11.2837 16.8446 10.7163 16.8446 10.1942 16.6299C8.81773 16.0636 6.47697 14.9413 4.49618 13.2217C2.51619 11.5027 1 9.28338 1 6.5C1 3.46243 3.46243 1 6.5 1C7.97821 1 9.31844 1.58184 10.3076 2.53109Z" stroke="white" stroke-width="2"/>
<path d="M10.3076 2.53109L11 3.19555L11.6924 2.53109C12.6816 1.58184 14.0218 1 15.5 1C18.5376 1 21 3.46243 21 6.5C21 9.28337 19.4838 11.5027 17.5038 13.2217C15.523 14.9413 13.1823 16.0636 11.8058 16.6299C11.2837 16.8446 10.7163 16.8446 10.1942 16.6299C8.81773 16.0636 6.47697 14.9413 4.49618 13.2217C2.51619 11.5027 1 9.28338 1 6.5C1 3.46243 3.46243 1 6.5 1C7.97821 1 9.31844 1.58184 10.3076 2.53109Z" stroke="#E9E9E9" stroke-width="2"/>
</svg>
