<svg width="206" height="64" viewBox="0 0 206 64" fill="none" xmlns="http://www.w3.org/2000/svg">
<path d="M5 63.8303V55.7327H5.76002L8.9419 62.5427L12.1075 55.7327H12.8768V63.8256H12.0889V57.5781L9.20453 63.8303H8.66996L5.79024 57.5781V63.8303H5Z" fill="#A68568"/>
<path d="M14.5667 63.8303V55.7327H19.6265V56.5252H15.3918V59.3259H18.9501V60.1185H15.3918V63.0377H19.6265V63.8303H14.5667Z" fill="#A68568"/>
<path d="M24.0308 63.9999C23.2243 63.9999 22.5433 63.821 21.9901 63.463C21.4346 63.1051 21.0163 62.6101 20.7304 61.9755C20.4445 61.341 20.3027 60.6112 20.3027 59.7815C20.3027 58.9517 20.4445 58.2219 20.7304 57.5874C21.0163 56.9529 21.4346 56.4578 21.9901 56.0999C22.5456 55.742 23.2243 55.563 24.0308 55.563C24.9721 55.563 25.7391 55.8047 26.3364 56.2858C26.9314 56.7669 27.3405 57.4131 27.5613 58.2242L26.7176 58.4427C26.5456 57.8012 26.2365 57.2945 25.7902 56.918C25.344 56.5438 24.7583 56.3556 24.0308 56.3556C23.3963 56.3556 22.871 56.4997 22.4503 56.7879C22.0296 57.0761 21.7135 57.4782 21.502 57.9941C21.2905 58.5101 21.1813 59.1051 21.1743 59.7791C21.1697 60.4532 21.2743 61.0482 21.4858 61.5618C21.6973 62.0755 22.0157 62.4776 22.441 62.7681C22.8664 63.0586 23.3963 63.2051 24.0285 63.2051C24.756 63.2051 25.3417 63.0168 25.7879 62.6403C26.2342 62.2637 26.5433 61.7571 26.7153 61.1202L27.559 61.3387C27.3382 62.1475 26.9291 62.7937 26.3341 63.2748C25.7391 63.7559 24.9698 63.9976 24.0285 63.9976L24.0308 63.9999Z" fill="#A68568"/>
<path d="M31.0639 63.8303V56.5252H28.2354V55.7327H34.72V56.5252H31.8914V63.8303H31.0639Z" fill="#A68568"/>
<path d="M39.0105 63.9999C38.204 63.9999 37.523 63.821 36.9699 63.463C36.4144 63.1051 35.996 62.6101 35.7101 61.9755C35.4243 61.341 35.2825 60.6112 35.2825 59.7815C35.2825 58.9517 35.4243 58.2219 35.7101 57.5874C35.996 56.9529 36.4144 56.4578 36.9699 56.0999C37.5254 55.742 38.204 55.563 39.0105 55.563C39.817 55.563 40.5027 55.742 41.0535 56.0999C41.6067 56.4578 42.0274 56.9529 42.3133 57.5874C42.5991 58.2219 42.7433 58.9517 42.7433 59.7815C42.7433 60.6112 42.5991 61.341 42.3133 61.9755C42.0274 62.6101 41.6067 63.1051 41.0535 63.463C40.5004 63.821 39.8194 63.9999 39.0105 63.9999ZM39.0105 63.2074C39.6451 63.2074 40.1727 63.0633 40.5957 62.7751C41.0187 62.4869 41.3371 62.0848 41.5486 61.5688C41.7601 61.0528 41.867 60.4578 41.867 59.7838C41.867 59.1098 41.7601 58.5148 41.5486 58.0011C41.3371 57.4875 41.0187 57.0854 40.5957 56.7972C40.1727 56.5089 39.6427 56.3625 39.0105 56.3579C38.376 56.3579 37.8507 56.502 37.4301 56.7902C37.0094 57.0784 36.6933 57.4805 36.4818 57.9965C36.2703 58.5124 36.1634 59.1074 36.1587 59.7815C36.1541 60.4555 36.2586 61.0505 36.4702 61.5618C36.6817 62.0732 37.0001 62.4752 37.4231 62.7658C37.8461 63.0563 38.376 63.2027 39.0082 63.2074H39.0105Z" fill="#A68568"/>
<path d="M46.3435 63.8303V55.7327H49.4696C49.9228 55.7327 50.3179 55.8256 50.655 56.0139C50.992 56.2022 51.2546 56.4532 51.4429 56.7693C51.6311 57.0854 51.7241 57.4363 51.7241 57.8175C51.7241 58.2521 51.6079 58.6403 51.3755 58.9796C51.1431 59.319 50.8316 59.5537 50.4411 59.6862L50.4295 59.4096C50.9548 59.5607 51.3662 59.8233 51.666 60.1975C51.9658 60.5717 52.1169 61.0249 52.1169 61.5572C52.1169 62.0267 52.017 62.4288 51.8194 62.7681C51.6195 63.1074 51.3406 63.3701 50.9804 63.5514C50.6201 63.735 50.2017 63.828 49.7253 63.828H46.3389L46.3435 63.8303ZM47.1756 59.1865H49.465C49.7229 59.1865 49.96 59.1284 50.1738 59.0098C50.3877 58.8913 50.5573 58.7286 50.6829 58.5241C50.8084 58.3172 50.8711 58.0801 50.8711 57.8105C50.8711 57.427 50.7386 57.1179 50.4737 56.8762C50.2087 56.6368 49.8717 56.5159 49.465 56.5159H47.1756V59.1865ZM47.1756 63.0377H49.5254C49.8554 63.0377 50.1506 62.9796 50.4132 62.8611C50.6759 62.7425 50.8827 62.5752 51.0338 62.3567C51.1849 62.1406 51.2616 61.8779 51.2616 61.5688C51.2616 61.2597 51.1919 60.9994 51.0524 60.76C50.913 60.5206 50.7247 60.3277 50.4876 60.1836C50.2505 60.0395 49.9786 59.9674 49.6741 59.9674H47.1709V63.0377H47.1756Z" fill="#A68568"/>
<path d="M52.7861 63.8303L55.5752 55.7327H56.6722L59.4613 63.8303H58.6014L55.9517 56.1929H56.2771L53.6461 63.8303H52.7861ZM54.0296 61.8686V61.0923H58.2132V61.8686H54.0296Z" fill="#A68568"/>
<path d="M60.5862 63.8303V55.7327H61.4136V63.0377H64.4839V55.7327H65.3113V63.0377H68.3863V55.7327H69.2068V63.8303H60.5862Z" fill="#A68568"/>
<path d="M70.8943 63.8303V55.7327H75.9541V56.5252H71.7194V59.3259H75.2778V60.1185H71.7194V63.0377H75.9541V63.8303H70.8943Z" fill="#A68568"/>
<path d="M77.4161 63.8303V55.7327H82.476V56.5252H78.2412V63.8303H77.4138H77.4161Z" fill="#A68568"/>
<path d="M86.7688 63.9999C85.9623 63.9999 85.2813 63.821 84.7282 63.463C84.1727 63.1051 83.7543 62.6101 83.4684 61.9755C83.1825 61.341 83.0408 60.6112 83.0408 59.7815C83.0408 58.9517 83.1825 58.2219 83.4684 57.5874C83.7543 56.9529 84.1727 56.4578 84.7282 56.0999C85.2837 55.742 85.9623 55.563 86.7688 55.563C87.5753 55.563 88.261 55.742 88.8118 56.0999C89.365 56.4578 89.7857 56.9529 90.0716 57.5874C90.3574 58.2219 90.5016 58.9517 90.5016 59.7815C90.5016 60.6112 90.3574 61.341 90.0716 61.9755C89.7857 62.6101 89.365 63.1051 88.8118 63.463C88.2587 63.821 87.5777 63.9999 86.7688 63.9999ZM86.7688 63.2074C87.4034 63.2074 87.931 63.0633 88.354 62.7751C88.777 62.4869 89.0954 62.0848 89.3069 61.5688C89.5184 61.0528 89.6253 60.4578 89.6253 59.7838C89.6253 59.1098 89.5184 58.5148 89.3069 58.0011C89.0954 57.4875 88.777 57.0854 88.354 56.7972C87.931 56.5089 87.401 56.3625 86.7688 56.3579C86.1343 56.3579 85.6091 56.502 85.1884 56.7902C84.7677 57.0784 84.4516 57.4805 84.2401 57.9965C84.0286 58.5124 83.9217 59.1074 83.917 59.7815C83.9124 60.4555 84.017 61.0505 84.2285 61.5618C84.44 62.0732 84.7584 62.4752 85.1814 62.7658C85.6044 63.0563 86.1343 63.2027 86.7665 63.2074H86.7688Z" fill="#A68568"/>
<path d="M94.1018 63.8303V55.7327H99.1012V56.5252H94.9292V58.882H97.2302C97.3092 58.882 97.3976 58.8843 97.4975 58.8913C97.5975 58.8959 97.6974 58.9076 97.7973 58.9215C98.2134 58.9773 98.569 59.1214 98.8618 59.3492C99.157 59.5769 99.3801 59.8675 99.5359 60.2161C99.6916 60.5647 99.7683 60.9459 99.7683 61.3573C99.7683 61.7687 99.6916 62.1499 99.5359 62.4985C99.3801 62.8471 99.1547 63.1353 98.8618 63.3654C98.5667 63.5932 98.2134 63.7373 97.7973 63.7931C97.6951 63.8047 97.5951 63.814 97.4975 63.821C97.3976 63.828 97.3092 63.8326 97.2302 63.8326H94.1041L94.1018 63.8303ZM94.9292 63.0377H97.207C97.2744 63.0377 97.3534 63.0331 97.4441 63.0261C97.5347 63.0191 97.623 63.0075 97.709 62.9912C98.1251 62.9099 98.4319 62.71 98.6294 62.3916C98.827 62.0755 98.9246 61.7292 98.9246 61.355C98.9246 60.9808 98.827 60.6298 98.6294 60.3137C98.4319 59.9976 98.1251 59.8001 97.709 59.7187C97.623 59.7001 97.5347 59.6885 97.4441 59.6815C97.3534 59.6769 97.2744 59.6722 97.207 59.6722H94.9292V63.0354V63.0377Z" fill="#A68568"/>
<path d="M100.219 63.8303L103.008 55.7327H104.105L106.894 63.8303H106.034L103.385 56.1929H103.71L101.079 63.8303H100.219ZM101.462 61.8686V61.0923H105.646V61.8686H101.462Z" fill="#A68568"/>
<path d="M107.866 63.8302V63.0934C108.073 63.112 108.242 63.105 108.377 63.0678C108.512 63.033 108.621 62.9516 108.705 62.8238C108.789 62.6959 108.863 62.5054 108.928 62.252C108.991 61.9987 109.056 61.6686 109.119 61.2596C109.191 60.818 109.251 60.3764 109.302 59.9371C109.353 59.4978 109.398 59.0539 109.437 58.6007C109.477 58.1497 109.509 57.6849 109.535 57.2084C109.56 56.732 109.586 56.2392 109.609 55.7302H114.72V63.8278H113.893V56.5228H110.406C110.381 56.9086 110.355 57.3037 110.33 57.7081C110.306 58.1126 110.276 58.5263 110.239 58.9516C110.204 59.3746 110.16 59.8116 110.109 60.2578C110.058 60.7064 109.995 61.1689 109.92 61.6431C109.86 62.0033 109.79 62.3357 109.709 62.6448C109.628 62.9516 109.516 63.2096 109.372 63.4211C109.228 63.6303 109.035 63.7744 108.793 63.8534C108.551 63.9324 108.242 63.9231 107.864 63.8255L107.866 63.8302Z" fill="#A68568"/>
<path d="M115.845 63.8303L118.634 55.7327H119.731L122.52 63.8303H121.66L119.011 56.1929H119.336L116.705 63.8303H115.845ZM117.088 61.8686V61.0923H121.272V61.8686H117.088Z" fill="#A68568"/>
<path d="M123.645 63.8303V55.7327H124.472V59.3817H128.949V55.7327H129.769V63.8303H128.949V60.1743H124.472V63.8303H123.645Z" fill="#A68568"/>
<path d="M134.734 63.9999C133.927 63.9999 133.249 63.821 132.693 63.463C132.138 63.1051 131.719 62.6101 131.434 61.9755C131.148 61.341 131.006 60.6112 131.006 59.7815C131.006 58.9517 131.148 58.2219 131.434 57.5874C131.719 56.9529 132.138 56.4578 132.693 56.0999C133.249 55.742 133.927 55.563 134.734 55.563C135.675 55.563 136.445 55.8047 137.04 56.2858C137.635 56.7669 138.044 57.4131 138.267 58.2242L137.423 58.4427C137.251 57.8012 136.942 57.2945 136.496 56.918C136.049 56.5438 135.464 56.3556 134.736 56.3556C134.104 56.3556 133.576 56.4997 133.156 56.7879C132.735 57.0761 132.419 57.4782 132.207 57.9941C131.996 58.5101 131.887 59.1051 131.877 59.7791C131.873 60.4532 131.977 61.0482 132.189 61.5618C132.4 62.0755 132.719 62.4776 133.144 62.7681C133.569 63.0586 134.099 63.2051 134.732 63.2051C135.459 63.2051 136.045 63.0168 136.491 62.6403C136.937 62.2637 137.246 61.7571 137.418 61.1202L138.262 61.3387C138.041 62.1475 137.632 62.7937 137.035 63.2748C136.44 63.7559 135.671 63.9976 134.729 63.9976L134.734 63.9999Z" fill="#A68568"/>
<path d="M138.827 63.8303L141.616 55.7327H142.713L145.502 63.8303H144.642L141.993 56.1929H142.318L139.687 63.8303H138.827ZM140.07 61.8686V61.0923H144.254V61.8686H140.07Z" fill="#A68568"/>
<path d="M0 39.3118V38.6564H3.81639C4.41604 38.3844 4.79721 37.6198 4.79721 36.8574V3.60234C4.79721 2.83766 4.41604 2.07532 3.81639 1.80338H0V1.14795H14.4474C24.6973 1.14795 28.8948 5.29205 28.8948 11.0701C28.8948 17.9405 23.2795 21.9196 15.1563 21.9196H10.1941V36.804C10.1941 37.5686 10.5752 38.3844 11.1749 38.6564H15.8629V39.3118H0ZM10.1964 21.2665H14.4497C20.0116 21.2665 23.2284 17.6128 23.2284 11.6697C23.2284 5.72668 19.9558 1.85684 14.0662 1.85684H10.1941V21.2665H10.1964Z" fill="#A68568"/>
<path d="M62.6983 28.6719L63.1887 28.8346C62.0987 32.2698 61.3898 35.8677 61.0621 39.3029H31.3491V38.6475H35.1655C35.7652 38.3755 36.1463 37.6109 36.1463 36.8485V3.59111C36.1463 2.82643 35.7652 2.06409 35.1655 1.79215H31.3491V1.13672H59.8093C59.9186 4.40691 60.2997 7.73521 60.9552 11.0054L60.409 11.1146L54.9563 1.84561H41.5432V19.3471H49.5571C50.5937 19.3471 51.4119 18.8009 51.7373 18.1478L51.8465 12.3697H52.3927V26.9822H51.8465L51.7373 21.2018C51.4096 20.5464 50.5914 20.0025 49.5571 20.0025H41.5432V38.594H56.1556L62.6983 28.6719Z" fill="#A68568"/>
<path d="M66.7147 39.2936V38.6382H70.5311C71.1308 38.3663 71.5119 37.6016 71.5119 36.8392V3.58183C71.5119 2.81716 71.1308 2.05481 70.5311 1.78287H66.7147V1.12744H81.7083V1.78287H77.892C77.2923 2.05481 76.9111 2.81948 76.9111 3.58183V18.7939H79.584L92.2859 5.16463C93.4852 3.85609 93.6502 2.21983 92.6136 1.7852H87.161V1.12977H99.2098V1.7852H96.4835L83.0703 16.0699L97.9547 35.2611C100.3 38.2593 100.79 38.7498 102.152 38.7498V39.2959H88.4137V38.6405H92.8298C93.4294 38.3128 93.4294 37.5504 92.8832 36.7323L79.6351 19.4493H76.9088V36.8416C76.9088 37.6062 77.29 38.3686 77.8896 38.6405H81.706V39.2959H66.7124L66.7147 39.2936Z" fill="#A68568"/>
<path d="M143.347 39.3118V38.6564H147.163C147.763 38.3844 148.144 37.6198 148.144 36.8574V3.60234C148.144 2.83766 147.763 2.07532 147.163 1.80338H143.347V1.14795H157.794C168.044 1.14795 172.242 5.29205 172.242 11.0701C172.242 17.9405 166.627 21.9196 158.503 21.9196H153.541V36.804C153.541 37.5686 153.922 38.3844 154.522 38.6564H159.21V39.3118H143.345H143.347ZM153.543 21.2665H157.797C163.359 21.2665 166.575 17.6128 166.575 11.6697C166.575 5.72668 163.305 1.85684 157.416 1.85684H153.543V21.2665Z" fill="#A68568"/>
<path d="M169.766 50.8335L169.22 50.7242C169.548 46.7428 169.548 42.5453 169.274 38.5662H172.437C176.635 35.1867 180.125 23.0287 180.779 7.97931C180.941 5.25299 180.07 2.41975 178.924 1.76432H174.998V1.10889H204.767V1.76432H200.951C200.404 2.03625 199.97 2.80093 199.97 3.56327V36.7114C199.97 37.4761 200.407 38.2919 201.006 38.5662H205.859C205.587 42.5453 205.641 46.7428 205.969 50.7242L205.369 50.8335L200.953 39.2751H174.673L169.766 50.8335ZM194.573 38.5662V1.81778H181.815L181.597 6.83347C181.051 22.3175 177.618 34.8567 173.418 38.5639H194.571L194.573 38.5662Z" fill="#A68568"/>
<path d="M132.455 24.0906C135.956 15.914 137.036 4.72981 131.175 1.26206L131.272 0.839047C132.079 1.19001 133.764 1.8896 135.247 3.19349C147.133 13.6432 138.322 35.2516 121.768 39.0378C120.444 39.3399 119.077 39.412 118.182 39.4608L118.203 38.8913C124.579 38.0174 129.366 31.2958 132.458 24.093L132.455 24.0906ZM124.411 0.471819L124.42 0C123.523 0.0464846 122.168 0.185938 120.83 0.42301C104.321 3.37478 94.9841 26.4149 107.351 36.2673C108.895 37.4968 110.498 38.4521 111.305 38.803L111.3 38.1801C105.692 34.5752 106.178 23.7118 109.708 15.5677C112.827 8.37653 118.033 1.34108 124.409 0.46717L124.411 0.471819Z" fill="#A68568"/>
</svg>
